<?xml version="1.0" encoding="iso-8859-1"?>
<svg fill="#112d66" version="1.1" id="Layer_1"
	xmlns="http://www.w3.org/2000/svg"
	xmlns:xlink="http://www.w3.org/1999/xlink" viewBox="0 0 496 496" xml:space="preserve">
	<g>
		<g>
			<g>
				<path d="M440,159.126V74.798h-93.136l-72.672-59.88c-14.928-12.936-37.456-12.928-52.24-0.128l-72.824,60.008H56v84.328
				L0,207.118v243.68c0,22.056,17.944,40,40,40h416c22.056,0,40-17.944,40-40v-243.68L440,159.126z M440,180.189l31.672,27.144
				L440,216.83V180.189z M232.272,27.006c8.968-7.768,22.48-7.776,31.6,0.128l57.84,47.664H174.28L232.272,27.006z M72,90.798h352
				v130.824l-176,52.736L72,221.622V90.798z M56,180.189v36.64l-31.672-9.488L56,180.189z M480,450.798c0,13.232-10.768,24-24,24H40
				c-13.232,0-24-10.768-24-24V221.55l232,69.512l232-69.512V450.798z"/>
				<path d="M243.72,314.798c-9.696,0-18.808,3.776-25.656,10.624L200,343.486l-18.064-18.064
				c-6.848-6.848-15.96-10.624-25.656-10.624c-20.008,0-36.28,16.272-36.28,36.28c0,9.696,3.776,18.808,10.624,25.656L200,446.11
				l48-48l48,48l69.376-69.376c6.848-6.848,10.624-15.96,10.624-25.656c0-20.008-16.272-36.28-36.28-36.28
				c-9.696,0-18.808,3.776-25.656,10.624L296,343.486l-18.064-18.064c-7.896-7.896-18.56-11.592-30.072-10.208
				C246.488,315.061,245.136,314.798,243.72,314.798z M280,351.077c0-0.368-0.096-0.712-0.112-1.08L296,366.11l29.376-29.376
				c3.824-3.824,8.92-5.936,14.344-5.936c11.176,0,20.28,9.104,20.28,20.28c0,5.424-2.112,10.52-5.936,14.344L296,423.486
				l-36.688-36.688l10.064-10.064C276.224,369.886,280,360.774,280,351.077z M264,351.077c0,5.424-2.112,10.512-5.936,14.344
				L200,423.486l-58.064-58.064c-3.824-3.824-5.936-8.92-5.936-14.344c0-11.176,9.104-20.28,20.28-20.28
				c5.424,0,10.512,2.112,14.344,5.936L200,366.11l29.376-29.376c3.824-3.824,8.92-5.936,14.344-5.936
				C254.896,330.798,264,339.902,264,351.077z"/>
				<rect x="104" y="122.798" width="288" height="16"/>
				<rect x="104" y="154.798" width="288" height="16"/>
				<rect x="376" y="186.798" width="16" height="16"/>
				<rect x="104" y="186.798" width="256" height="16"/>
			</g>
		</g>
	</g>
</svg>