<?xml version="1.0" encoding="iso-8859-1"?>
<svg fill="#112d66" version="1.1" id="Layer_1"
	xmlns="http://www.w3.org/2000/svg"
	xmlns:xlink="http://www.w3.org/1999/xlink" viewBox="0 0 512.001 512.001" xml:space="preserve">
	<g>
		<g>
			<rect x="468.568" y="381.518" width="15.229" height="24.347"/>
		</g>
	</g>
	<g>
		<g>
			<polygon points="468.567,415.16 468.567,431.099 405.953,431.099 405.953,446.328 483.796,446.328 483.796,415.16 		"/>
		</g>
	</g>
	<g>
		<g>
			<rect x="54.227" y="192.424" width="70.46" height="15.229"/>
		</g>
	</g>
	<g>
		<g>
			<path d="M347.419,159.198v-0.001l-33.69-56.999H213.683l-33.69,56.999h-47.692v-28.5H46.614v28.5H15.412v88.832v15.229v210.574
			h496.589V263.259V248.03v-88.832H347.419z M222.372,117.427h82.668l24.688,41.77H197.684L222.372,117.427z M61.843,145.927h55.229
			v13.163H61.843V145.927z M496.772,458.602H30.641V263.259h120.186c-0.525,1.113-1.031,2.234-1.522,3.361
			c-0.136,0.312-0.264,0.627-0.397,0.94c-0.378,0.886-0.748,1.776-1.105,2.67c-0.171,0.426-0.335,0.855-0.501,1.283
			c-0.313,0.809-0.616,1.62-0.912,2.436c-0.157,0.434-0.315,0.866-0.466,1.302c-0.313,0.895-0.613,1.794-0.906,2.697
			c-0.11,0.338-0.225,0.674-0.332,1.014c-0.388,1.231-0.757,2.467-1.107,3.709c-0.077,0.274-0.145,0.55-0.22,0.824
			c-0.268,0.981-0.527,1.964-0.772,2.95c-0.108,0.437-0.209,0.874-0.313,1.313c-0.2,0.848-0.393,1.699-0.575,2.55
			c-0.097,0.455-0.194,0.91-0.286,1.367c-0.183,0.901-0.352,1.804-0.515,2.71c-0.069,0.384-0.143,0.766-0.208,1.149
			c-0.217,1.278-0.418,2.56-0.596,3.847c-0.024,0.178-0.043,0.355-0.066,0.533c-0.149,1.116-0.283,2.234-0.403,3.354
			c-0.046,0.428-0.083,0.858-0.125,1.287c-0.085,0.887-0.162,1.777-0.228,2.667c-0.034,0.465-0.067,0.929-0.096,1.395
			c-0.057,0.907-0.103,1.815-0.14,2.725c-0.017,0.412-0.039,0.823-0.051,1.236c-0.041,1.31-0.067,2.621-0.067,3.935
			c0,68.809,55.98,124.789,124.789,124.789c68.808,0,124.788-55.98,124.788-124.789c0-1.314-0.026-2.625-0.067-3.935
			c-0.013-0.412-0.035-0.824-0.051-1.236c-0.038-0.91-0.082-1.817-0.14-2.725c-0.029-0.465-0.062-0.93-0.096-1.395
			c-0.066-0.89-0.143-1.779-0.228-2.667c-0.041-0.429-0.079-0.859-0.125-1.287c-0.119-1.117-0.253-2.231-0.401-3.342
			c-0.024-0.182-0.043-0.365-0.068-0.547c-0.178-1.285-0.378-2.567-0.595-3.845c-0.065-0.385-0.139-0.768-0.208-1.151
			c-0.162-0.904-0.332-1.806-0.514-2.706c-0.092-0.458-0.19-0.915-0.287-1.372c-0.183-0.851-0.375-1.7-0.574-2.546
			c-0.104-0.438-0.205-0.876-0.313-1.314c-0.245-0.987-0.504-1.97-0.772-2.95c-0.075-0.274-0.144-0.55-0.22-0.824
			c-0.349-1.243-0.719-2.478-1.107-3.709c-0.107-0.339-0.222-0.675-0.332-1.014c-0.292-0.902-0.593-1.801-0.906-2.697
			c-0.152-0.435-0.31-0.868-0.466-1.302c-0.295-0.815-0.599-1.628-0.912-2.436c-0.165-0.428-0.33-0.857-0.5-1.284
			c-0.356-0.892-0.726-1.779-1.103-2.663c-0.135-0.316-0.263-0.633-0.4-0.948c-0.491-1.126-0.996-2.247-1.521-3.359h120.18V458.602z
			 M154.146,316.51c0-20.13,5.505-39.807,15.919-56.906c16.317-26.788,42.486-44.805,72.404-50.619
			c6.904-1.342,14.008-2.034,21.236-2.034s14.333,0.692,21.236,2.034c29.918,5.814,56.086,23.831,72.403,50.619
			c10.415,17.098,15.919,36.776,15.919,56.906c0,60.411-49.148,109.56-109.559,109.56c-54.747,0-100.245-40.365-108.295-92.897
			C154.579,327.738,154.146,322.175,154.146,316.51z M496.772,248.027H368.038v0.003c-0.492-0.749-1.002-1.486-1.511-2.223
			c-0.175-0.254-0.343-0.513-0.52-0.764c-0.726-1.037-1.468-2.062-2.224-3.076c-0.216-0.289-0.442-0.572-0.66-0.859
			c-0.548-0.721-1.097-1.442-1.66-2.15c-0.308-0.387-0.625-0.766-0.938-1.149c-0.488-0.6-0.976-1.2-1.474-1.79
			c-0.346-0.41-0.702-0.811-1.054-1.217c-0.478-0.551-0.956-1.104-1.445-1.647c-0.373-0.415-0.753-0.823-1.132-1.234
			c-0.481-0.521-0.962-1.042-1.452-1.554c-0.394-0.412-0.793-0.818-1.192-1.224c-0.489-0.498-0.98-0.995-1.476-1.484
			c-0.409-0.403-0.823-0.802-1.238-1.2c-0.502-0.481-1.006-0.958-1.515-1.432c-0.421-0.391-0.846-0.779-1.272-1.164
			c-0.517-0.467-1.039-0.929-1.563-1.387c-0.43-0.377-0.863-0.75-1.3-1.121c-0.534-0.454-1.074-0.902-1.616-1.346
			c-0.439-0.36-0.878-0.721-1.322-1.075c-0.553-0.442-1.113-0.875-1.673-1.308c-0.444-0.342-0.886-0.686-1.335-1.022
			c-0.581-0.436-1.169-0.861-1.757-1.286c-0.439-0.317-0.874-0.638-1.318-0.949c-0.624-0.44-1.258-0.867-1.891-1.295
			c-0.417-0.282-0.831-0.57-1.251-0.847c-0.71-0.468-1.43-0.921-2.149-1.375c-0.354-0.223-0.704-0.454-1.061-0.673
			c-1.081-0.666-2.172-1.317-3.273-1.95c-18.801-10.797-40.26-16.504-62.06-16.504s-43.261,5.707-62.06,16.504
			c-1.103,0.633-2.193,1.284-3.274,1.95c-0.355,0.218-0.703,0.448-1.056,0.67c-0.721,0.454-1.442,0.908-2.152,1.377
			c-0.42,0.277-0.835,0.564-1.252,0.847c-0.634,0.428-1.267,0.856-1.892,1.295c-0.442,0.311-0.876,0.63-1.314,0.946
			c-0.59,0.426-1.179,0.853-1.76,1.288c-0.448,0.335-0.888,0.678-1.331,1.019c-0.562,0.434-1.123,0.868-1.678,1.311
			c-0.443,0.353-0.88,0.713-1.318,1.072c-0.543,0.446-1.083,0.893-1.618,1.348c-0.437,0.371-0.869,0.745-1.3,1.121
			c-0.524,0.458-1.045,0.919-1.561,1.386c-0.427,0.386-0.852,0.774-1.274,1.166c-0.51,0.473-1.014,0.95-1.516,1.432
			c-0.414,0.397-0.827,0.795-1.236,1.198c-0.498,0.491-0.99,0.989-1.479,1.487c-0.398,0.406-0.797,0.811-1.19,1.223
			c-0.489,0.513-0.971,1.033-1.451,1.553c-0.379,0.41-0.76,0.819-1.133,1.235c-0.487,0.542-0.964,1.093-1.443,1.644
			c-0.352,0.406-0.71,0.809-1.057,1.22c-0.497,0.589-0.983,1.187-1.47,1.785c-0.314,0.385-0.633,0.765-0.941,1.153
			c-0.563,0.709-1.113,1.43-1.66,2.15c-0.218,0.287-0.444,0.57-0.66,0.859c-0.756,1.014-1.499,2.039-2.224,3.076
			c-0.177,0.253-0.344,0.511-0.52,0.764c-0.509,0.738-1.017,1.475-1.511,2.223H30.641v-73.603h140.352H356.42h140.352V248.027z"/>
		</g>
	</g>
	<g>
		<g>
			<path d="M430.928,192.421v37.614h45.957v-37.614H430.928z M461.656,214.806h-15.499v-7.156h15.499V214.806z"/>
		</g>
	</g>
	<g>
		<g>
			<path d="M297.228,256.831c-12.975,0-25.063,5.463-33.563,14.759c-8.5-9.295-20.588-14.759-33.563-14.759
			c-12.151,0-23.497,4.755-31.948,13.386c-8.374,8.553-12.985,19.96-12.985,32.122c0,11.464,3.371,18.287,5.833,23.268l0.155,0.311
			c10.031,20.32,61.783,63.553,67.651,68.415l4.846,4.016l4.856-4.003c5.92-4.881,58.116-48.27,67.718-68.537l0.259-0.546
			c2.292-4.82,5.755-12.103,5.755-22.925C342.242,277.245,322.048,256.831,297.228,256.831z M322.734,318.724l-0.268,0.563
			c-0.588,1.241-1.425,2.638-2.476,4.163c-1.453,2.11-3.32,4.468-5.489,6.995c-0.661,0.771-1.356,1.56-2.072,2.361
			c-1.502,1.68-3.109,3.415-4.812,5.198c-1.874,1.961-3.853,3.973-5.905,6.01c-0.001,0.001-0.002,0.002-0.003,0.003
			c-12.639,12.546-28.002,26.046-38.031,34.519c-17.173-14.58-50.115-44.053-58.166-58.054c-0.26-0.452-0.493-0.887-0.701-1.306
			l-0.157-0.318c-2.092-4.235-4.256-8.615-4.256-16.521c0.001-16.977,13.049-30.277,29.706-30.277
			c11.287,0,21.565,6.216,26.822,16.219l6.74,12.826l6.74-12.826c5.257-10.004,15.535-16.219,26.821-16.219
			c16.702,0,29.785,13.3,29.785,30.278C327.013,309.723,324.74,314.505,322.734,318.724z"/>
		</g>
	</g>
	<g>
		<g>
			<rect x="81.842" y="38.17" width="15.229" height="53.83"/>
		</g>
	</g>
	<g>
		<g>

			<rect x="133.785" y="74.306" transform="matrix(0.4198 -0.9076 0.9076 0.4198 18.8842 193.3825)" width="53.829" height="15.229"/>
		</g>
	</g>
	<g>
		<g>
			<rect x="10.595" y="55.007" transform="matrix(0.9076 -0.4198 0.4198 0.9076 -32.7085 15.2129)" width="15.229" height="53.829"/>
		</g>
	</g>
</svg>